<svg xmlns="http://www.w3.org/2000/svg" version="1.1" viewBox="-5.0 -10.0 110.0 135.0">
 <g fill-rule="evenodd">
  <path d="m42.957 9.8398v-0.31641c0-3.8789 3.1445-7.0273 7.0273-7.0273 3.8789 0 7.0273 3.1445 7.0273 7.0273v0.31641c-1.2773-0.28906-2.5859-0.50391-3.9219-0.63281-0.15625-1.5742-1.4883-2.8047-3.1055-2.8047s-2.9492 1.2305-3.1055 2.8047c-1.332 0.12891-2.6406 0.34375-3.9219 0.63281z"/>
  <path d="m62.633 88.367c-1.668 5.4023-6.7031 9.3281-12.648 9.3281s-10.98-3.9297-12.648-9.3281h4.1758c1.4805 3.1992 4.7188 5.4258 8.4727 5.4258s6.9961-2.2227 8.4727-5.4258z"/>
  <path d="m77.691 64.273c0 2.8398 1.1914 6.0625 2.5742 8.9258 2.1758 4.5117 4.8984 8.1406 4.8984 8.1406 0.44531 0.58984 0.51563 1.3828 0.18359 2.043-0.33203 0.66016-1.0078 1.0781-1.7461 1.0781h-67.23c-0.73828 0-1.4141-0.41797-1.7461-1.0781-0.33203-0.66016-0.25781-1.4531 0.18359-2.043 0 0 2.7188-3.6289 4.8984-8.1406 1.3789-2.8633 2.5742-6.0859 2.5742-8.9258v-23.605c0-15.301 12.402-27.707 27.707-27.707 15.301 0 27.707 12.402 27.707 27.707v23.605zm-3.9062 0v-23.605c0-13.145-10.656-23.801-23.801-23.801s-23.801 10.656-23.801 23.801v23.605c0 5.5312-3.7148 12.379-6.1602 16.285h29.961 29.961c-2.4453-3.9062-6.1602-10.754-6.1602-16.285z"/>
 </g>
<text x="0.0" y="117.5" font-size="5.0" font-weight="bold" font-family="Arbeit Regular, Helvetica, Arial-Unicode, Arial, Sans-serif" fill="#000000"></text><text x="0.0" y="122.5" font-size="5.0" font-weight="bold" font-family="Arbeit Regular, Helvetica, Arial-Unicode, Arial, Sans-serif" fill="#000000"></text></svg>