<?xml version="1.0" encoding="utf-8"?>
<!-- Svg Vector Icons : http://www.onlinewebfonts.com/icon -->
<!DOCTYPE svg PUBLIC "-//W3C//DTD SVG 1.1//EN" "http://www.w3.org/Graphics/SVG/1.1/DTD/svg11.dtd">
<svg version="1.1" xmlns="http://www.w3.org/2000/svg" xmlns:xlink="http://www.w3.org/1999/xlink" x="0px" y="0px" viewBox="0 0 256 256" enable-background="new 0 0 256 256" xml:space="preserve">
<metadata> Svg Vector Icons : http://www.onlinewebfonts.com/icon </metadata>
<g><g><g><path fill="#000000" d="M34.7,57.9c-2.3,0.8-4.1,2.4-17,14.8c-5.5,5.3-6.4,6.4-7.1,8.5c-1,2.9-0.7,6,0.6,8.7c1.3,2.5,108.6,106,111.5,107.5c2.9,1.6,8.2,1.6,11,0.1c1.6-0.9,83.1-78.9,103.8-99.4c7.5-7.4,8.4-8.9,8.4-13c0-3.9-1.5-5.9-12-15.9C223.1,58.9,221.9,58,217.1,58c-2.4,0-3.4,0.2-5.4,1.3c-1.9,1-12.1,10.6-42.7,40.3c-22.1,21.4-40.4,39-40.5,39.1c-0.1,0.1-18.7-17.7-41.3-39.5c-27.6-26.7-41.7-40-43-40.6C41.5,57.3,37.5,57,34.7,57.9z"/></g></g></g>
</svg>